<?xml version="1.0" encoding="UTF-8"?>
<svg version="1.1" xmlns="http://www.w3.org/2000/svg" width="231" height="291">
<path d="M0 0 C76.23 0 152.46 0 231 0 C231 96.03 231 192.06 231 291 C154.77 291 78.54 291 0 291 C0 194.97 0 98.94 0 0 Z " fill="#FCFCFC" transform="translate(0,0)"/>
<path d="M0 0 C76.23 0 152.46 0 231 0 C231 96.03 231 192.06 231 291 C154.77 291 78.54 291 0 291 C0 194.97 0 98.94 0 0 Z M97 4 C96.21173828 4.19867676 95.42347656 4.39735352 94.61132812 4.60205078 C70.3832874 10.9143916 47.56001602 21.5807019 33.625 43.4375 C24.2834991 59.59886966 21.54702443 75.34966495 20.49414062 93.64941406 C19.65114878 107.81534229 17.07891339 120.00801137 8.3125 131.625 C7.34826139 132.94906737 6.38595106 134.27454161 5.42578125 135.6015625 C5.00723877 136.16182129 4.58869629 136.72208008 4.1574707 137.29931641 C0.84799471 142.16196348 0.21647216 146.20189402 1 152 C2.86418008 157.42306933 6.25927162 160.01127993 11 163 C13.35969112 166.47444175 13.39573325 170.01719264 13.75 174.125 C14.39797587 180.21670948 15.91225806 184.60339031 19.5625 189.55859375 C23.17916689 195.70103072 23.26577296 202.44727974 23.4375 209.375 C23.91392896 222.04946409 23.91392896 222.04946409 30 232.875 C40.16544021 241.98736078 55.21231384 241.56714131 68 241 C71.39462975 240.52840006 74.67331675 239.81153725 78 239 C79.99810662 238.65549886 81.99722415 238.31622777 84 238 C84.25394531 238.54269531 84.50789063 239.08539063 84.76953125 239.64453125 C85.28580078 240.71767578 85.28580078 240.71767578 85.8125 241.8125 C86.14894531 242.52019531 86.48539062 243.22789062 86.83203125 243.95703125 C88.05914358 246.10345182 89.0891077 247.4340918 91 249 C93.08671148 249.4493071 93.08671148 249.4493071 95.42721558 249.38095093 C96.78565582 249.39364014 96.78565582 249.39364014 98.17153931 249.40658569 C99.16277802 249.400513 100.15401672 249.39444031 101.17529297 249.38818359 C102.22108521 249.39344055 103.26687744 249.39869751 104.34436035 249.40411377 C107.81045353 249.41734543 111.27608943 249.40856296 114.7421875 249.3984375 C117.14730925 249.40045762 119.5524304 249.40336854 121.95755005 249.40713501 C127.003172 249.41156292 132.04863481 249.40511328 137.09423828 249.39111328 C143.56309653 249.37403969 150.03158089 249.38384835 156.50042534 249.40183067 C161.46923641 249.41267146 166.43795887 249.40922044 171.40677261 249.4014473 C173.7918108 249.39944516 176.17685702 249.40190501 178.56188583 249.40888596 C181.89677984 249.41650298 185.23106901 249.40489113 188.56591797 249.38818359 C190.04670334 249.39729263 190.04670334 249.39729263 191.55740356 249.40658569 C196.52989473 249.36042504 199.94646279 249.23721985 204 246 C203.61665122 242.70320049 203.16269582 239.58068561 202.265625 236.37890625 C194.20050561 207.12382696 205.69282285 179.90125159 216.8046875 153.23828125 C229.29361437 123.19513204 232.8518407 93.59533666 220.65332031 62.54589844 C210.1450543 37.75810718 190.66420391 18.57658458 166 8 C153.21978808 3.20115026 140.02855675 0.60944144 126.375 0.6875 C125.32666992 0.69313965 124.27833984 0.6987793 123.19824219 0.70458984 C114.19248941 0.84379723 105.72762085 1.79831324 97 4 Z " fill="#FDFDFD" transform="translate(0,0)"/>
<path d="M0 0 C4.46291392 1.40012986 6.51837805 3.52542429 9.375 7.0625 C12.39508478 10.71454084 14.41396071 11.81398175 19.015625 12.58984375 C24.68971545 13.76263804 28.80663082 17.26908269 32 22 C33.74210176 24.75068699 34.00324531 26.08924598 34.125 29.4375 C34.59905147 32.96692975 34.59905147 32.96692975 36.6640625 34.28125 C38.08322582 35.06790233 39.50250092 35.85435303 40.921875 36.640625 C44.52376003 38.99674528 46.51187802 41.99458756 48 46 C48.57701034 50.40138123 48.41804016 54.4671861 47.25 58.75 C46.85318614 62.3213247 48.93912659 64.21175951 51 67 C51.90402948 69.71208843 52.19179124 71.50392749 52.25 74.3125 C52.28867187 75.42044922 52.28867187 75.42044922 52.328125 76.55078125 C52 79 52 79 50.48046875 81.73828125 C48.28269048 86.5803521 48.88402581 90.9754057 49.20507812 96.19140625 C49.40617721 101.96932641 48.30872636 106.19870891 45 111 C43.46142578 112.47973633 43.46142578 112.47973633 42 113.6875 C38.11435021 117.2146235 37.4442376 121.7040358 36.34765625 126.68359375 C33.34489153 134.07300606 27.56552176 137.63370815 20.47070312 140.71679688 C19.59349609 141.07837891 18.71628906 141.43996094 17.8125 141.8125 C16.04804236 142.56869613 14.28371454 143.32519529 12.51953125 144.08203125 C11.36094604 144.56506714 11.36094604 144.56506714 10.17895508 145.05786133 C8.72152519 145.68802625 7.28463003 146.36786468 5.87255859 147.09399414 C1.94112118 148.99615376 -2.70186532 148.74990556 -7 149 C-8.25876953 149.09861328 -8.25876953 149.09861328 -9.54296875 149.19921875 C-10.69732422 149.25529297 -10.69732422 149.25529297 -11.875 149.3125 C-12.89207031 149.36857422 -12.89207031 149.36857422 -13.9296875 149.42578125 C-17.21932201 148.74923378 -18.74052211 147.46240163 -21 145 C-21.37398847 142.18760674 -21.48293015 140.02407845 -21.3125 137.25 C-21.28994141 136.55261719 -21.26738281 135.85523438 -21.24414062 135.13671875 C-21.18547048 133.42355065 -21.09579256 131.71149377 -21 130 C-21.56847656 129.87882813 -22.13695312 129.75765625 -22.72265625 129.6328125 C-23.88087891 129.38144531 -23.88087891 129.38144531 -25.0625 129.125 C-25.89136719 128.95613281 -26.72023437 128.78726563 -27.57421875 128.61328125 C-30 128 -30 128 -33.375 126.3125 C-37.04870192 125.60676812 -37.04870192 125.60676812 -39.703125 127.87890625 C-41.62883021 129.52399399 -43.5138988 131.21805302 -45.3515625 132.9609375 C-48.38406307 135.29569458 -49.29314866 135.46375256 -53 135 C-54.94458008 133.70239258 -54.94458008 133.70239258 -56.76953125 131.89453125 C-57.43017578 131.24033203 -58.09082031 130.58613281 -58.77148438 129.91210938 C-59.44501953 129.21923828 -60.11855469 128.52636719 -60.8125 127.8125 C-61.50537109 127.13896484 -62.19824219 126.46542969 -62.91210938 125.77148438 C-63.56630859 125.11083984 -64.22050781 124.45019531 -64.89453125 123.76953125 C-65.49112549 123.16729736 -66.08771973 122.56506348 -66.70239258 121.94458008 C-68.37392846 119.43963495 -68.39072902 117.9564565 -68 115 C-65.99609375 112.5703125 -65.99609375 112.5703125 -63.4375 110.125 C-59.71801505 106.38983587 -59.71801505 106.38983587 -58.75 101.375 C-59.1625 100.26125 -59.575 99.1475 -60 98 C-60.25394531 97.27167969 -60.50789063 96.54335937 -60.76953125 95.79296875 C-61.46265852 93.84333491 -62.22572594 91.9188531 -63 90 C-64.12019531 89.89042969 -65.24039063 89.78085938 -66.39453125 89.66796875 C-67.86726222 89.50850107 -69.33991465 89.34830683 -70.8125 89.1875 C-71.55048828 89.11724609 -72.28847656 89.04699219 -73.04882812 88.97460938 C-78.49508501 88.35851697 -78.49508501 88.35851697 -80.71435547 86.78271484 C-82.46445186 84.35597655 -82.37276402 82.72086477 -82.36328125 79.74609375 C-82.36231445 78.21758789 -82.36231445 78.21758789 -82.36132812 76.65820312 C-82.34521484 75.59537109 -82.32910156 74.53253906 -82.3125 73.4375 C-82.31572266 72.37080078 -82.31894531 71.30410156 -82.32226562 70.20507812 C-82.26696528 62.26696528 -82.26696528 62.26696528 -80 60 C-77.1092504 59.5326333 -74.28339431 59.16300658 -71.375 58.875 C-70.57320312 58.78863281 -69.77140625 58.70226562 -68.9453125 58.61328125 C-66.96436365 58.40103673 -64.98227282 58.19950069 -63 58 C-62.32243118 56.44219668 -61.65840543 54.87849904 -61 53.3125 C-60.62875 52.44238281 -60.2575 51.57226562 -59.875 50.67578125 C-58.92571395 47.77283061 -58.50687512 46.01980283 -59 43 C-61.18751351 40.03214541 -63.62983358 37.42702967 -66.12890625 34.71875 C-68 32 -68 32 -68.19921875 29.61328125 C-66.33867504 25.55887167 -63.4054586 22.78866427 -60.25 19.6875 C-59.62867187 19.04232422 -59.00734375 18.39714844 -58.3671875 17.73242188 C-53.83088472 13.21047448 -53.83088472 13.21047448 -50.34765625 12.328125 C-47.19666314 13.22990672 -45.56475681 14.82350045 -43.1875 17.0625 C-39.87755132 19.9563027 -39.87755132 19.9563027 -35.85546875 21.4140625 C-33.76456902 21.17486687 -31.98922668 20.68167888 -30 20 C-29.28457031 19.85175781 -28.56914063 19.70351563 -27.83203125 19.55078125 C-25.54441919 18.96325247 -23.91963597 18.38339963 -22 17 C-21.07734187 15.06363165 -21.07734187 15.06363165 -20.5625 12.8125 C-19.21715688 7.61845377 -16.65476968 4.84152179 -12.5390625 1.4765625 C-8.31982968 -0.97708366 -4.70282048 -0.9260691 0 0 Z " fill="#070707" transform="translate(142,27)"/>
<path d="M0 0 C0.75925781 0.61488281 1.51851562 1.22976562 2.30078125 1.86328125 C20.46961161 17.01966306 32.79489404 42.4588688 35 66 C35.26439473 70.08414623 35.38101147 74.1579955 35.4375 78.25 C35.47109619 79.71179688 35.47109619 79.71179688 35.50537109 81.203125 C35.44972321 99.1978922 29.35543701 115.35385368 22.5625 131.75 C21.05689857 135.42950061 19.55986355 139.11243011 18.06640625 142.796875 C17.7091597 143.67610626 17.35191315 144.55533752 16.98384094 145.46121216 C8.18332889 167.29596215 2.63723084 189.88146175 10.125 212.96875 C11.57613169 217.99588477 11.57613169 217.99588477 11 221 C6.4064128 224.95281345 1.33322217 224.44371526 -4.40234375 224.43579102 C-5.44842804 224.44586685 -6.49451233 224.45594269 -7.57229614 224.46632385 C-11.02747298 224.49480293 -14.48221313 224.50068 -17.9375 224.50390625 C-20.3397642 224.51354566 -22.74202663 224.52363801 -25.14428711 224.53416443 C-30.17793869 224.55212448 -35.21143582 224.55768539 -40.24511719 224.5559082 C-46.69850201 224.55560298 -53.1508992 224.59659987 -59.60404968 224.64822483 C-64.56429607 224.6815577 -69.52430272 224.68766677 -74.48464966 224.68607903 C-76.86413994 224.68962196 -79.24363624 224.70290735 -81.62301636 224.72607613 C-84.94860401 224.75543276 -88.27203476 224.74686494 -91.59765625 224.72875977 C-93.07372849 224.75404755 -93.07372849 224.75404755 -94.57962036 224.77984619 C-101.08364513 224.68974786 -101.08364513 224.68974786 -103.70504761 222.7165966 C-106.21009073 219.80836086 -107.82410592 216.63458171 -109 213 C-111.71991976 213.42946101 -114.42123875 213.85881243 -117.09765625 214.51171875 C-129.79939674 217.50161092 -146.46220502 217.92735834 -158.18359375 211.3203125 C-164.51897967 206.71523628 -167.73618148 201.74812729 -169 194 C-169.34289498 190.05670768 -169.411136 186.11044368 -169.47851562 182.15429688 C-169.72582142 174.74115476 -171.29847001 168.05049171 -175.5625 161.875 C-178.62757854 156.6963897 -178.95018126 151.32224162 -179.4453125 145.453125 C-180.02086754 141.87009224 -180.83150141 139.8792266 -183 137 C-184.485 136.0409375 -184.485 136.0409375 -186 135.0625 C-190.03056172 132.29148882 -191.39966254 129.79601615 -192.421875 125.03515625 C-193.21184239 116.63415687 -187.94004807 109.66551448 -182.89453125 103.375 C-173.90250972 92.10252764 -173.28633973 78.37286839 -172.41870117 64.59082031 C-171.53516756 50.96418251 -169.7156533 37.86569687 -163.1875 25.625 C-162.84058105 24.95710449 -162.49366211 24.28920898 -162.13623047 23.60107422 C-159.28627211 18.25366262 -156.09085027 13.48810226 -152 9 C-151.27296875 8.18144531 -150.5459375 7.36289062 -149.796875 6.51953125 C-112.8078476 -32.91554474 -40.01552391 -34.65330965 0 0 Z M-145.75 14.875 C-158.89749133 30.76926769 -162.79411455 49.73497348 -163.5 69.8125 C-164.16482223 87.55008408 -170.06894252 101.95598198 -180.65234375 116.1796875 C-182.33837065 118.45704557 -182.98923095 119.9473513 -183.5625 122.75 C-182.89324279 126.61681941 -182.26638573 126.88021286 -179.1875 129.0625 C-178.45789063 129.56136719 -177.72828125 130.06023437 -176.9765625 130.57421875 C-173.78848692 132.87391753 -172.31427894 135.18339868 -171.64453125 139.0546875 C-171.40161612 141.03321365 -171.19834896 143.01651036 -171 145 C-169.45429669 146.54570331 -167.9306528 146.19824102 -165.78125 146.28125 C-164.93175781 146.31863281 -164.08226562 146.35601562 -163.20703125 146.39453125 C-162.31371094 146.42933594 -161.42039063 146.46414062 -160.5 146.5 C-158.73940962 146.56859443 -156.97897259 146.64128952 -155.21875 146.71875 C-154.43435547 146.74904297 -153.64996094 146.77933594 -152.84179688 146.81054688 C-151 147 -151 147 -150 148 C-149.875 150.5 -149.875 150.5 -150 153 C-152.05922402 155.05922402 -156.21708124 154.41427579 -159.0625 154.5625 C-160.20041992 154.62727539 -160.20041992 154.62727539 -161.36132812 154.69335938 C-163.24065438 154.79973633 -165.12030244 154.90039934 -167 155 C-165.9966104 157.51522326 -164.98852169 160.02811104 -163.96484375 162.53515625 C-163.62582031 163.36917969 -163.28679687 164.20320312 -162.9375 165.0625 C-162.59589844 165.89910156 -162.25429687 166.73570312 -161.90234375 167.59765625 C-160.44266215 171.48382155 -159.87816274 174.83733616 -159.82421875 178.9921875 C-159.80037109 179.94480469 -159.77652344 180.89742187 -159.75195312 181.87890625 C-159.70915706 183.86827472 -159.67781284 185.85792414 -159.65820312 187.84765625 C-159.48457825 193.83165777 -159.04990872 197.47492148 -155 202 C-143.84207473 208.10527987 -127.85504062 207.54056208 -115.8125 204.0390625 C-103.25352722 199.39921978 -95.92933262 192.19353731 -89 181 C-87.35 181.33 -85.7 181.66 -84 182 C-83.11319118 184.96658665 -82.80501772 186.51097187 -83.96875 189.4296875 C-88.33765905 196.40656777 -93.13709648 202.33322561 -100 207 C-99.34414811 210.60992379 -99.34414811 210.60992379 -98 214 C-65.66 214 -33.32 214 0 214 C-0.66 210.04 -1.32 206.08 -2 202 C-2.17823897 197.92671537 -2.28149007 193.94246706 -2.25 189.875 C-2.25773438 188.86824219 -2.26546875 187.86148438 -2.2734375 186.82421875 C-2.22682452 168.8083024 4.83562268 151.97365586 11.19384766 135.36938477 C12.13544942 132.91020933 13.07021583 130.44851695 14.00390625 127.98632812 C14.60898821 126.39568615 15.21444318 124.805186 15.8203125 123.21484375 C16.09537628 122.49183578 16.37044006 121.76882782 16.65383911 121.02391052 C17.91703126 117.72817295 19.21716464 114.46139485 20.62573242 111.22485352 C30.50584504 88.04020127 27.31991159 61.25601883 18.1875 38.4375 C13.17620069 27.63508184 6.32497206 18.46441883 -2 10 C-2.75925781 9.22785156 -3.51851562 8.45570312 -4.30078125 7.66015625 C-10.85388564 1.38590737 -18.01835952 -2.83855086 -26 -7 C-27.10214844 -7.61681641 -27.10214844 -7.61681641 -28.2265625 -8.24609375 C-63.53356783 -26.32159249 -119.34522399 -13.64444422 -145.75 14.875 Z " fill="#080808" transform="translate(193,25)"/>
<path d="M0 0 C3.92420129 0.73578774 5.42357686 1.47079223 8 4.5625 C8.4970984 7.17437293 8.68682501 9.66355574 8.76171875 12.3203125 C8.78408419 14.76553262 8.78408419 14.76553262 11 16.5625 C12.32 16.5625 13.64 16.5625 15 16.5625 C15.66 15.5725 16.32 14.5825 17 13.5625 C20.87981918 12.95897257 22.52048381 13.24282254 25.8125 15.4375 C28.62182587 18.16655942 28.95251268 18.93329301 29.25 22.875 C28.984656 26.78882394 28.36680088 28.49442479 26 31.5625 C22.71536341 33.75225773 19.79303725 34.56056563 16 35.5625 C15.61781233 37.21864657 15.28604898 38.88707024 15 40.5625 C16.54076187 42.10326187 17.9844485 41.80606699 20.125 41.875 C25.20604669 41.81836413 27.89318065 40.51940993 32 37.5625 C33.90332221 35.47694964 33.90332221 35.47694964 35 33.5625 C37.97249386 33.88098149 39.03839103 34.59875819 41.25 36.6875 C43.47253745 40.33881152 43.60172616 42.35041689 43 46.5625 C40.09759795 52.23537673 34.70106177 53.61499989 29 55.5625 C28.957279 57.22861905 28.95936168 58.89632885 29 60.5625 C29.33 60.8925 29.66 61.2225 30 61.5625 C32.68545988 61.28469381 35.33110245 60.95387544 38 60.5625 C38.68835938 60.46582031 39.37671875 60.36914062 40.0859375 60.26953125 C41.72465846 60.03877258 43.36243325 59.80131182 45 59.5625 C47.5087448 63.32561721 47.13967945 65.02246631 46.54296875 69.33984375 C45.76303719 72.53251325 44.37156644 74.32645165 42 76.5625 C37.77655886 79.07878177 33.80811363 79.27349647 29 78.5625 C25.38129136 76.01962366 23.41719611 72.2272812 21 68.5625 C18.44281548 65.27469134 14.96984113 63.61721794 11 62.5625 C7.64875535 62.32801058 4.35273437 62.3803595 1 62.5625 C1 64.5425 1 66.5225 1 68.5625 C2.10408203 68.80033203 2.10408203 68.80033203 3.23046875 69.04296875 C7.53302091 70.07171636 11.28488963 71.14773598 15.125 73.375 C17.82123185 77.95859415 17.70695095 82.33038257 17.859375 87.578125 C17.65899187 90.44583882 17.65899187 90.44583882 19 91.5625 C20.66617115 91.60313832 22.33388095 91.605221 24 91.5625 C24.66 90.2425 25.32 88.9225 26 87.5625 C34.415 87.0675 34.415 87.0675 43 86.5625 C43 94.5625 43 94.5625 41 97.5625 C40.34 97.5625 39.68 97.5625 39 97.5625 C38.566875 96.7375 38.13375 95.9125 37.6875 95.0625 C37.130625 94.2375 36.57375 93.4125 36 92.5625 C33.37305578 92.14469121 33.37305578 92.14469121 31 92.5625 C30.20435808 94.77602443 30.20435808 94.77602443 30 97.5625 C30.474375 98.449375 30.94875 99.33625 31.4375 100.25 C33.56422669 104.75866058 33.73188281 108.65411201 33 113.5625 C30.14084507 119.18221831 30.14084507 119.18221831 26 120.5625 C25.608125 119.9025 25.21625 119.2425 24.8125 118.5625 C24.214375 117.9025 23.61625 117.2425 23 116.5625 C20.42429006 116.39566274 20.42429006 116.39566274 18 116.5625 C17.731875 117.15417969 17.46375 117.74585938 17.1875 118.35546875 C14.25015558 124.27846917 11.29469347 128.14682428 5 130.5625 C0.94086564 131.40128791 -2.06645742 131.10572521 -5.71875 128.98046875 C-8 126.5625 -8 126.5625 -8.48828125 123.109375 C-8.40126953 121.22992188 -8.40126953 121.22992188 -8.3125 119.3125 C-8.26738281 118.04921875 -8.22226563 116.7859375 -8.17578125 115.484375 C-8.11777344 114.52015625 -8.05976563 113.5559375 -8 112.5625 C-7.05898437 112.60890625 -6.11796875 112.6553125 -5.1484375 112.703125 C2.6306606 113.26472466 2.6306606 113.26472466 9.75 110.75 C12.1407431 108.57878385 12.1407431 108.57878385 14 105.5625 C13.6878236 102.91617713 13.6878236 102.91617713 13 100.5625 C11.32171592 99.59625833 11.32171592 99.59625833 9 99.5625 C8.13375 100.3875 7.2675 101.2125 6.375 102.0625 C4.26326991 104.02765756 3.35421479 104.54207487 0.42578125 104.7109375 C-6.54793978 104.01456022 -6.54793978 104.01456022 -8 102.5625 C-8.09851171 100.73134117 -8.12972629 98.89630067 -8.125 97.0625 C-8.12757813 96.0621875 -8.13015625 95.061875 -8.1328125 94.03125 C-8 91.5625 -8 91.5625 -7 90.5625 C-3.90573033 89.98682192 -0.79948781 89.53223401 2.3125 89.0625 C4.90956624 88.84154792 4.90956624 88.84154792 6 87.5625 C6.16666667 85.0625 6.16666667 85.0625 6 82.5625 C5.67 82.2325 5.34 81.9025 5 81.5625 C0.71 81.5625 -3.58 81.5625 -8 81.5625 C-8 71.9925 -8 62.4225 -8 52.5625 C-3.35075366 51.40018841 -1.52279972 52.25932042 3 53.5625 C5.33215844 53.63653678 7.66860788 53.65765886 10 53.5625 C10.33 51.9125 10.66 50.2625 11 48.5625 C4.95225461 44.43903724 -0.79749803 43.4613344 -8 42.5625 C-8 39.9225 -8 37.2825 -8 34.5625 C-6.87851563 34.50642578 -6.87851563 34.50642578 -5.734375 34.44921875 C-4.74953125 34.38347656 -3.7646875 34.31773438 -2.75 34.25 C-1.77546875 34.19199219 -0.8009375 34.13398437 0.203125 34.07421875 C3.2933474 33.5088289 4.76939877 32.75101442 7 30.5625 C7.33425735 27.93624861 7.33425735 27.93624861 7 25.5625 C3.41672247 24.56032936 3.41672247 24.56032936 0 25.5625 C-3.5625 25.6875 -3.5625 25.6875 -7 25.5625 C-9.24400129 23.31849871 -8.32623408 18.32268753 -8.375 15.3125 C-8.41238281 14.45269531 -8.44976562 13.59289062 -8.48828125 12.70703125 C-8.55108409 8.17824899 -8.48392142 6.19936649 -5.6640625 2.48828125 C-3 0.5625 -3 0.5625 0 0 Z " fill="#F7F7F7" transform="translate(138,35.4375)"/>
<path d="M0 0 C3.60476919 1.0923543 5.72642134 2.61066614 8.375 5.1875 C11.11284902 7.61194513 11.60128194 7.99275058 15.4375 8.0625 C18.77489024 7.067138 21.99149688 5.9635543 25.203125 4.62109375 C27 4 27 4 30 4 C30.61309748 8.14862625 30.84204597 11.8729352 30 16 C27.78267991 18.32417889 25.50369532 19.6853309 22.73828125 21.30859375 C14.9309722 26.1310828 9.45717261 34.23570692 7 43 C5.58624023 54.08487748 7.69607168 62.6596432 14.125 71.6875 C18.42786846 76.94241311 23.93195671 80.96597836 30 84 C30 87.96 30 91.92 30 96 C26.22037242 95.62203724 23.34229016 95.17463784 19.9375 93.4375 C16.53131265 91.77064236 14.75245611 91.59140966 11 92 C8.37141087 93.69514682 8.37141087 93.69514682 6.125 96 C5.34382813 96.7425 4.56265625 97.485 3.7578125 98.25 C3.17773438 98.8275 2.59765625 99.405 2 100 C-0.64 98.02 -3.28 96.04 -6 94 C-3.92085418 89.84170836 -1.64585369 87.48344497 1.63671875 84.29296875 C3.68250895 80.85205514 2.93358102 78.84113207 2 75 C0.98474247 71.98178784 -0.19657601 69.05671453 -1.4375 66.125 C-1.75009766 65.35414062 -2.06269531 64.58328125 -2.38476562 63.7890625 C-3.82856825 59.67356669 -3.82856825 59.67356669 -7 57 C-10.34155338 56.72300281 -13.68285874 56.55299296 -17.03125 56.37890625 C-20 56 -20 56 -22 54 C-22.1953125 51.8359375 -22.1953125 51.8359375 -22.125 49.375 C-22.09792969 48.14910156 -22.09792969 48.14910156 -22.0703125 46.8984375 C-22.04710938 46.27195313 -22.02390625 45.64546875 -22 45 C-20.41058594 44.80083984 -20.41058594 44.80083984 -18.7890625 44.59765625 C-17.40101721 44.41946125 -16.01299769 44.2410654 -14.625 44.0625 C-13.57699219 43.93198242 -13.57699219 43.93198242 -12.5078125 43.79882812 C-8.63216425 43.33681872 -8.63216425 43.33681872 -5 42 C-4.0842703 40.26116211 -4.0842703 40.26116211 -3.30859375 38.140625 C-3.00373047 37.35429688 -2.69886719 36.56796875 -2.38476562 35.7578125 C-2.07216797 34.93023437 -1.75957031 34.10265625 -1.4375 33.25 C-1.12103516 32.43789062 -0.80457031 31.62578125 -0.47851562 30.7890625 C0.38503104 28.5376075 1.20105567 26.27503778 2 24 C2.32742187 23.10410156 2.65484375 22.20820312 2.9921875 21.28515625 C3.0047685 17.60521501 0.92944707 15.87868639 -1.4375 13.1875 C-2.28183594 12.21167969 -3.12617187 11.23585938 -3.99609375 10.23046875 C-4.65738281 9.49441406 -5.31867188 8.75835937 -6 8 C-4.44805246 4.67240077 -2.69378051 2.51419515 0 0 Z " fill="#F8F8F8" transform="translate(91,51)"/>
<path d="M0 0 C0 15.18 0 30.36 0 46 C-6.32651009 42.83674496 -10.4200315 37.66619685 -14 31.625 C-15.89613664 24.75150468 -16.20736438 18.55061081 -12.8125 12.125 C-10.60238486 8.61886834 -8.09767236 5.77160158 -5 3 C-4.443125 2.401875 -3.88625 1.80375 -3.3125 1.1875 C-2 0 -2 0 0 0 Z " fill="#FAFAFA" transform="translate(121,78)"/>
</svg>
